<?xml version="1.0" encoding="UTF-8"?>
<svg width="64px" height="64px" viewBox="0 0 64 64" version="1.1" xmlns="http://www.w3.org/2000/svg" xmlns:xlink="http://www.w3.org/1999/xlink">
    <path d="M56,0 L56,64 L15,64 C11.13,64 8,60.87 8,57 L8,7 C8,3.13 11.13,0 15,0 L56,0 Z M52,54 L15,54 C13.4,54 12,55.4 12,57 C12,58.6 13.4,60 15,60 L52,60 L52,54 Z M52,4 L15,4 C13.4,4 12,5.4 12,7 L12,50.67 C12.91,50.24 13.93,50 15,50 L52,50 L52,4 Z M44,14 L44,18 L20,18 L20,14 L44,14 Z" fill="#000000" fill-rule="nonzero"></path>
</svg>