<?xml version="1.0" encoding="UTF-8"?>
<svg width="64px" height="64px" viewBox="0 0 64 64" version="1.1" xmlns="http://www.w3.org/2000/svg" xmlns:xlink="http://www.w3.org/1999/xlink">
    <path d="M56,0 L56,64 L16,64 C11.58,64 8,60.42 8,56 L8,8 C8,3.67 11.68,0 16,0 L56,0 Z M52,52 L16,52 C13.79,52 12,53.8 12,56 C12,58.14 13.79,60 16,60 L52,60 L52,52 Z M52,4 L16,4 C13.86,4 12,5.87 12,8 L12,49 C13.18,48.39 14.54,48 16,48 L52,48 L52,4 Z" fill="#000000"></path>
    <polygon fill="#000000" points="20 18 44 18 44 14 20 14"></polygon>
</svg>