<?xml version="1.0" encoding="UTF-8"?>
<svg width="64px" height="64px" viewBox="0 0 64 64" version="1.1" xmlns="http://www.w3.org/2000/svg" xmlns:xlink="http://www.w3.org/1999/xlink">
    <path d="M44,0 C49.52,0 54,4.48 54,10 L54,37.37 C55.6,38.03 57.02,38.79 58.26,39.64 C59.35,40.39 60,41.62 60,42.94 L60,50 L56,50 L56,64 L52,64 L52,50 L12,50 L12,64 L8,64 L8,50 L4,50 L4,42.82 C4,41.56 4.6,40.37 5.61,39.61 C6.86,38.69 8.32,37.88 10,37.19 L10,10 C10,4.48 14.48,0 20,0 L44,0 Z M32,38 C16.9,38 10.73,40.82 8,42.82 L8,46 L56,46 L56,42.94 C53.2,40.82 47.1,38 32,38 Z M41,4 L41,34.43 C44.35,34.77 47.35,35.29 50,36.02 L50,10 C50,6.76 47.295,4 44,4 L41,4 Z M23,4 L20,4 C16.76,4 14.12,6.57 14,9.78 L14,10 L14,35.85 C16.62,35.16 19.62,34.66 23,34.355 L23,4 Z M37,4 L27,4 L27,34.09 C28.26,34 30.11,34 32,34 C33.89,34 35.27,34.04 37,34.13 L37,4 Z" fill="#000000"></path>
</svg>