<?xml version="1.0" encoding="UTF-8"?>
<svg width="64px" height="64px" viewBox="0 0 64 64" version="1.1" xmlns="http://www.w3.org/2000/svg" xmlns:xlink="http://www.w3.org/1999/xlink">
    <path d="M32,2 C48.56,2 62,15.44 62,32 C62,48.56 48.56,62 32,62 C15.44,62 2,48.56 2,32 C2,15.44 15.44,2 32,2 Z M32,6 C17.65,6 6,17.65 6,32 C6,46.35 17.65,58 32,58 C46.35,58 58,46.35 58,32 C58,17.65 46.35,6 32,6 Z" fill="#000000" fill-rule="nonzero"></path>
    <path d="M34,16 L34,32.73 L43.72,37.26 L42,40.88 L31.16,35.81 L31,35.75 C30.42,35.41 30,34.75 30,34 L30,16 L34,16 Z" fill="#000000"></path>
</svg>