<?xml version="1.0" encoding="UTF-8"?>
<svg width="64px" height="64px" viewBox="0 0 64 64" version="1.1" xmlns="http://www.w3.org/2000/svg" xmlns:xlink="http://www.w3.org/1999/xlink">
    <path d="M32,2 C48.56,2 62,15.44 62,32 C62,48.56 48.56,62 32,62 C15.44,62 2,48.56 2,32 C2,15.44 15.44,2 32,2 Z M32,6 C17.65,6 6,17.65 6,32 C6,46.35 17.65,58 32,58 C46.35,58 58,46.35 58,32 C58,17.65 46.35,6 32,6 Z M33,16 C33.51,16 34,16.42 34,17 L34,32.73 L42.82,36.84 C43.28,37.05 43.55,37.62 43.3,38.17 L42.45,39.98 C42.24,40.44 41.66,40.7 41.13,40.46 L31.03,35.75 C30.42,35.41 30,34.75 30,34 L30,17 C30,16.49 30.42,16 31,16 L33,16 Z" fill="#000000" fill-rule="nonzero"></path>
</svg>