<?xml version="1.0" encoding="UTF-8"?>
<svg width="64px" height="64px" viewBox="0 0 64 64" version="1.1" xmlns="http://www.w3.org/2000/svg" xmlns:xlink="http://www.w3.org/1999/xlink">
    <path d="M36,0 C36.876,0 37.643,0.569 37.905,1.392 L40,10.431 C42.446,11.340 44.697,12.654 46.670,14.291 L55.395,11.623 C56.234,11.366 57.134,11.687 57.625,12.398 L61.712,19.464 C62.149,20.220 62.042,21.165 61.466,21.803 L54.677,28.143 C54.889,29.397 55,30.685 55,32 C55,33.314 54.889,34.602 54.677,35.856 L61.344,42.073 C61.983,42.668 62.157,43.603 61.792,44.382 L57.712,51.464 C57.274,52.223 56.397,52.603 55.553,52.418 L46.670,49.708 C44.697,51.345 42.446,52.659 40,53.568 L37.948,62.449 C37.751,63.303 37,64 36,64 L28,64 C27.123,64 26.356,63.430 26.094,62.607 L24,53.569 C21.554,52.660 19.303,51.346 17.329,49.708 L8.604,52.376 C7.765,52.633 6.865,52.312 6.374,51.601 L2.287,44.535 C1.850,43.779 1.957,42.834 2.533,42.196 L9.322,35.856 C9.110,34.602 9,33.314 9,32 C9,30.685 9.110,29.397 9.322,28.143 L2.655,21.926 C2.016,21.331 1.842,20.396 2.207,19.617 L6.287,12.535 C6.725,11.776 7.602,11.396 8.446,11.581 L17.329,14.291 C19.303,12.653 21.554,11.339 24,10.430 L26.051,1.550 C26.248,0.696 27,0 28,0 L36,0 Z M34.409,4 L29.59,4 L27.382,13.565 C24.041,14.401 20.968,16.124 18.351,18.786 L8.955,15.913 L6.546,20.087 L13.726,26.781 C13.242,28.574 13,30.313 13,32 C13,33.686 13.242,35.425 13.726,37.218 L6.546,43.912 L8.955,48.086 L18.351,45.212 C20.673,47.610 23.289,49.278 27.382,50.434 L29.59,60 L34.409,60 L36.615,50.434 C39.956,49.599 42.730,48.086 45.647,45.213 L55.043,48.087 L57.453,43.913 L50.272,37.220 C50.757,35.486 51,33.745 51,32 C51,30.254 50.757,28.514 50.272,26.780 L57.453,20.086 L55.043,15.912 L45.648,18.786 C43.325,16.388 40.744,14.700 36.615,13.565 L34.409,4 Z M32,22 C37.519,22 42,26.480 42,32 C42,37.519 37.519,42 32,42 C26.480,42 22,37.519 22,32 C22,26.480 26.480,22 32,22 Z M32,26 C28.689,26 26,28.689 26,32 C26,35.310 28.689,38 32,38 C35.310,38 38,35.310 38,32 C38,28.689 35.310,26 32,26 Z" fill="#000000"></path>
</svg>