<?xml version="1.0" encoding="UTF-8"?>
<svg width="64px" height="64px" viewBox="0 0 64 64" version="1.1" xmlns="http://www.w3.org/2000/svg" xmlns:xlink="http://www.w3.org/1999/xlink">
    <path d="M38.81,0 L39.85,10.38 C42.41,11.31 44.75,12.68 46.79,14.39 L56.31,10.1 L63.12,21.9 L54.65,27.99 C54.88,29.29 55,30.63 55,32 C55,33.37 54.88,34.71 54.65,36.01 L63.12,42.1 L56.31,53.9 L46.79,49.61 C44.75,51.32 42.41,52.69 39.85,53.62 L38.81,64 L25.19,64 L24.15,53.62 C21.59,52.69 19.25,51.32 17.2,49.6 L7.69,53.9 L0.88,42.1 L9.35,36.01 C9.12,34.71 9,33.37 9,32 C9,30.63 9.12,29.29 9.35,27.99 L0.88,21.9 L7.69,10.1 L17.2,14.4 C19.25,12.68 21.59,11.31 24.15,10.38 L25.19,0 L38.81,0 Z M35.19,4 L28.81,4 L28,12.11 L28,13.42 C24.19,14.24 20.8,16.2 18.21,18.93 L17.92,19.25 L16.76,18.59 L9.35,15.24 L6.16,20.76 L12.77,25.52 L13.91,26.18 C13.32,28.01 13,29.97 13,32 C13,33.85 13.26,35.63 13.76,37.32 L13.91,37.82 L12.77,38.48 L6.16,43.24 L9.35,48.76 L16.77,45.41 L17.92,44.75 C20.44,47.54 23.78,49.57 27.56,50.48 L28,50.58 L28,51.89 L28.81,60 L35.19,60 L36,51.9 L36,50.58 C39.81,49.76 43.2,47.8 45.79,45.07 L46.09,44.75 L47.22,45.41 L54.65,48.76 L57.84,43.24 L51.23,38.49 L50,37.83 C50.68,36 51,34.03 51,32 C51,30.15 50.74,28.37 50.24,26.68 L50,26.17 L51.23,25.51 L57.84,20.76 L54.65,15.24 L47.23,18.59 L46.08,19.25 C43.56,16.46 40.22,14.43 36.44,13.52 L36,13.42 L36,12.1 L35.19,4 Z M32,22 C37.52,22 42,26.48 42,32 C42,37.52 37.52,42 32,42 C26.48,42 22,37.52 22,32 C22,26.48 26.48,22 32,22 Z M32,26 C28.69,26 26,28.69 26,32 C26,35.31 28.69,38 32,38 C35.31,38 38,35.31 38,32 C38,28.69 35.31,26 32,26 Z" fill="#000000"></path>
</svg>