<?xml version="1.0" encoding="UTF-8"?>
<svg width="64px" height="64px" viewBox="0 0 64 64" version="1.1" xmlns="http://www.w3.org/2000/svg" xmlns:xlink="http://www.w3.org/1999/xlink">
    <path d="M43.63,5.84 C45.76,8.84 44.62,12.79 41.45,15.4 L37.32,19 C47,19 53.28,19 56,19 C60,19 64,22 64,26 C64,29.97 60.16,33 56,33 C51.84,33 48.19,33 47.16,33 C47.16,33 47.63,37.7 46.18,39.18 C46.15,40.64 46.25,41.65 46.23,42.89 C46.21,44.12 46.14,45.86 45.07,46.85 C44.52,50.2 44.66,52.32 43.39,53.46 C41.81,57.82 39.02,60 35,60 C29,60 22.61,57.9 17,54 L17,55 L0,55 L0,14 L17,14 L17,15.91 L33.94,4.31 C37.2,2.26 41.66,3.07 43.63,5.84 Z M36,7.71 C35,8.35 28.71,12.69 17,20.74 L17,49 C22.46,53.54 29,56 35,56 C39.27,56 39.27,51.64 40.48,50.65 C40.87,48.66 40.87,47.28 41.15,46.05 C41.43,44.81 41.66,44.42 42.17,44 C42.33,42.12 42.11,40.19 42.19,39 C42.27,37.77 42.51,37.08 43.13,36.54 C43.28,35.2 43.24,33.41 43,31.17 L45,29 C50.91,29 54.58,29 56,29 C58.13,29 60,27.55 60,26 C60,24.51 58.15,23 56,23 C54.56,23 46.56,23 32,23 L30.7,19.48 C34.78,15.89 37.47,13.54 38.77,12.43 C40.72,10.75 41.07,9.16 40.37,8.16 C39.66,7.16 37.52,6.76 36.04,7.71 Z M13,18 L4,18 L4,51 L13,51 L13,18 Z" fill="#000000" fill-rule="nonzero"></path>
</svg>