<?xml version="1.0" encoding="UTF-8"?>
<svg width="64px" height="64px" viewBox="0 0 64 64" version="1.1" xmlns="http://www.w3.org/2000/svg" xmlns:xlink="http://www.w3.org/1999/xlink">
    <title>hand</title>
    <g id="hand" stroke="none" stroke-width="1" fill="none" fill-rule="evenodd">
        <path d="M43.6317099,5.84348685 C45.7577616,8.84310655 44.6177035,12.7885233 41.4476569,15.4022064 L37.323,18.999 C47.0716404,18.9996667 53.2973071,19 56,19 C60.0540394,19 64,22.073011 64,26 C64,29.926989 60.1587989,32.9965611 56,33 C51.8412011,33.0034389 48.186698,32.9965611 47.157,32.999 C47.157,33.975826 47.6265312,37.7032705 46.1810913,39.1751099 C46.1497803,40.6447296 46.2507627,41.6481818 46.2294539,42.885889 C46.2081451,44.1235962 46.1430047,45.8647943 45.0650787,46.8513031 C44.5216064,50.1986389 44.6630652,52.3186011 43.387317,53.4580782 C41.8116271,57.8193594 39.0158548,60 35,60 C29.0130713,60 22.6100897,57.9004587 17.0001097,54.0622199 L17,55 L0,55 L0,14 L17,14 L17,15.9070582 L33.9375981,4.30550829 C37.1990397,2.26066977 41.6636111,3.06659339 43.6317099,5.84348685 Z M36.0370745,7.7107072 C35.0509587,8.34739222 28.705193,12.6914812 16.9997775,20.7429743 L16.9997775,49.0688522 C22.4595049,53.5350721 29.0345366,56 35,56 C39.2673333,56 39.2673333,51.6421429 40.484,50.648 C40.8686483,48.6590279 40.8686483,47.2796807 41.1479232,46.0465196 C41.4271982,44.8133585 41.6623037,44.4191022 42.1712477,43.9988694 C42.332536,42.1246201 42.1106481,40.1887759 42.190077,38.9790781 C42.2695059,37.7693804 42.5141569,37.0847977 43.1263432,36.5398008 C43.2777752,35.1971388 43.2381224,33.4077747 43.0073846,31.1717087 L45,29 C50.9116171,29 54.5782838,29 56,29 C58.1325744,29 60,27.5462239 60,26 C60,24.5136058 58.1533897,23 56,23 C54.5644069,23 46.5644069,23 32,23 L30.697787,19.4820272 C34.7758206,15.8917242 37.4654532,13.5395609 38.7666846,12.4255372 C40.7185317,10.7545017 41.0748046,9.15777394 40.368265,8.15647781 C39.6617254,7.15518168 37.5162482,6.75567966 36.0370745,7.7107072 Z M13,18 L4,18 L4,51 L13,51 L13,18 Z" id="Shape" fill="#000000" fill-rule="nonzero"></path>
    </g>
</svg>