<?xml version="1.0" encoding="UTF-8"?>
<svg width="64px" height="64px" viewBox="0 0 64 64" version="1.1" xmlns="http://www.w3.org/2000/svg" xmlns:xlink="http://www.w3.org/1999/xlink">
    <path d="M32,8 L32,56 L26,56 L13,44 L0,44 L0,20 L13,20 L26,8 L32,8 Z M28,12 L27.564,12 L14.563,24 L4,24 L4,40 L14.563,40 L27.565,52 L28,52 L28,12 Z M61.171,21 L64,23.830 L54.84,33 L64,42.169 L61.171,45 L52.012,35.829 L52,35.825 L42.828,45 L40,42.169 L49.159,33 L40,23.830 L42.828,21 L51.987,30.169 L52,30.173 L52,30.165 L52,30.168 L61.171,21 Z" fill="#000000" fill-rule="nonzero"></path>
</svg>