<?xml version="1.0" encoding="UTF-8"?>
<svg width="64px" height="64px" viewBox="0 0 64 64" version="1.1" xmlns="http://www.w3.org/2000/svg" xmlns:xlink="http://www.w3.org/1999/xlink">
    <path d="M26,2 C39.25,2 50,12.75 50,26 C50,31.9 47.86,37.31 44.32,41.49 L62,59.16 L59.16,62 L41.49,44.32 C37.31,47.86 31.9,50 26,50 C12.75,50 2,39.25 2,26 C2,12.75 12.75,2 26,2 Z M26,6 C14.96,6 6,14.96 6,26 C6,37.04 14.96,46 26,46 C37.04,46 46,37.04 46,26 C46,14.96 37.04,6 26,6 Z" fill="#000000" fill-rule="nonzero"></path>
</svg>