<?xml version="1.0" encoding="UTF-8"?>
<svg width="64px" height="64px" viewBox="0 0 64 64" version="1.1" xmlns="http://www.w3.org/2000/svg" xmlns:xlink="http://www.w3.org/1999/xlink">
    <path d="M32,8 L32,56 L26,56 L13,44 L0,44 L0,20 L13,20 L26,8 L32,8 Z M53.214,10.787 C58.642,16.216 62,23.716 62,32 C62,40.284 58.642,47.784 53.213,53.213 L50.384,50.384 C55.089,45.679 58,39.179 58,32 C58,24.820 55.090,18.321 50.385,13.616 L53.214,10.787 Z M28,12 L27.564,12 L14.563,24 L4,24 L4,40 L14.563,40 L27.565,52 L28,52 L28,12 Z M44.728,19.273 C47.985,22.530 50,27.029 50,32 C50,36.970 47.985,41.470 44.727,44.727 L41.899,41.899 C44.432,39.365 46,35.865 46,32 C46,28.134 44.432,24.634 41.899,22.100 L44.728,19.273 Z" fill="#000000" fill-rule="nonzero"></path>
</svg>