<?xml version="1.0" encoding="UTF-8"?>
<svg width="64px" height="64px" viewBox="0 0 64 64" version="1.1" xmlns="http://www.w3.org/2000/svg" xmlns:xlink="http://www.w3.org/1999/xlink">
    <path d="M53.89,3.04 L37.43,19.5 L38.93,25.07 L44.5,26.57 L60.96,10.11 C65.87,18.19 64.83,28.87 57.85,35.85 C52.21,41.5 44.16,43.25 37,41.13 L17.07,61.07 C13.17,64.97 6.83,64.97 2.93,61.07 C-0.98,57.17 -0.98,50.83 2.93,46.93 L22.87,27 C20.75,19.84 22.51,11.79 28.15,6.15 C35.13,-0.83 45.81,-1.87 53.89,3.04 Z M30.98,8.98 C25.93,14.03 24.62,21.58 27.51,28 L5.76,49.76 C3.41,52.1 3.41,55.9 5.76,58.24 C8.04,60.52 11.73,60.68 14.24,58.24 L36,36.49 C42.25,39.32 49.88,38.17 55.02,33.02 C59.32,28.72 60.84,22.69 59.56,17.16 L45.7,31.03 L35.67,28.33 L32.97,18.3 L46.84,4.44 C41.31,3.16 35.28,4.68 30.98,8.98 Z" fill="#000000"></path>
</svg>