<?xml version="1.0" standalone="no"?>
<!DOCTYPE svg PUBLIC "-//W3C//DTD SVG 1.1//EN" "http://www.w3.org/Graphics/SVG/1.1/DTD/svg11.dtd" >
<svg xmlns="http://www.w3.org/2000/svg">
<defs>
  <font id="picons-light" horiz-adv-x="1000">
    <font-face font-family="picons-light"
      units-per-em="1000" ascent="1000"
      descent="0" />
    <missing-glyph horiz-adv-x="0" />
    <glyph glyph-name="angle"
      unicode="&#xEA01;"
      horiz-adv-x="1000" d="M375 812.5L687.5 500L375 187.5L330.9375 232.0890625000001L599.046875 500L330.9375 768.30625z" />
    <glyph glyph-name="arrow"
      unicode="&#xEA02;"
      horiz-adv-x="1000" d="M455.15625 768.28125L500 812.5L812.5 500L810.15625 497.65625L500 187.5L455.15625 231.71875L692.1875 468.75L187.5 468.75L187.5 531.25L692.34375 531.25z" />
    <glyph glyph-name="bars"
      unicode="&#xEA03;"
      horiz-adv-x="1000" d="M1000 187.5L1000 125L0 125L0 187.5L1000 187.5zM1000 531.25L1000 468.75L0 468.75L0 531.25L1000 531.25zM1000 875L1000 812.5L0 812.5L0 875L1000 875z" />
    <glyph glyph-name="book"
      unicode="&#xEA04;"
      horiz-adv-x="1000" d="M875 1000L875 0L234.375 0C173.90625 0 125 48.90625 125 109.375L125 890.625C125 951.09375 173.90625 1000 234.375 1000L875 1000zM812.5 156.25L234.375 156.25C209.375 156.25 187.5 134.375 187.5 109.375C187.5 84.375 209.375 62.5 234.375 62.5L812.5 62.5L812.5 156.25zM812.5 937.5L234.375 937.5C209.375 937.5 187.5 915.625 187.5 890.625L187.5 208.28125C201.71875 215 217.65625 218.75 234.375 218.75L812.5 218.75L812.5 937.5zM687.5 781.25L687.5 718.75L312.5 718.75L312.5 781.25L687.5 781.25z" />
    <glyph glyph-name="calendar"
      unicode="&#xEA05;"
      horiz-adv-x="1000" d="M296.875 1000L296.875 875L703.125 875L703.125 1000L765.625 1000L765.625 875L937.5 875L937.5 0L62.5 0L62.5 875L234.375 875L234.375 1000L296.875 1000zM125 578.125L125 62.5L875 62.5L875 578.125L125 578.125zM125 640.625L875 640.625L875 812.5L125 812.5L125 640.625z" />
    <glyph glyph-name="chair"
      unicode="&#xEA06;"
      horiz-adv-x="1000" d="M687.5 1000C773.75 1000 843.75 930 843.75 843.75L843.75 416.09375C868.75 405.78125 890.9375 393.90625 910.3125 380.625C927.34375 368.90625 937.5 349.6875 937.5 329.0625L937.5 218.75L875 218.75L875 0L812.5 0L812.5 218.75L187.5 218.75L187.5 0L125 0L125 218.75L62.5 218.75L62.5 330.9375C62.5 350.625 71.875 369.21875 87.65625 381.09375C107.1875 395.46875 130 408.125 156.25 418.90625L156.25 843.75C156.25 930 226.25 1000 312.5 1000L687.5 1000zM500 406.25C264.0625 406.25 167.65625 362.1875 125 330.9375L125 281.25L875 281.25L875 329.0625C831.25 362.1875 735.9375 406.25 500 406.25zM640.625 937.5L640.625 462.03125C692.96875 456.71875 739.84375 448.59375 781.25 437.1875L781.25 843.75C781.25 894.375 738.984375 937.5 687.5 937.5L640.625 937.5zM359.375 937.5L312.5 937.5C261.875 937.5 220.625 897.34375 218.75 847.1875L218.75 843.75L218.75 439.84375C259.6875 450.625 306.5625 458.4375 359.375 463.203125L359.375 937.5zM578.125 937.5L421.875 937.5L421.875 467.34375C441.5625 468.75 470.46875 468.75 500 468.75C529.53125 468.75 551.09375 468.125 578.125 466.71875L578.125 937.5z" />
    <glyph glyph-name="check"
      unicode="&#xEA07;"
      horiz-adv-x="1000" d="M62.5 500L106.71875 544.21875L375 275.78125L893.28125 794.21875L937.5 750L375 187.5z" />
    <glyph glyph-name="chevron"
      unicode="&#xEA08;"
      horiz-adv-x="1000" d="M312.5 937.5L750 500L750 500L312.5 62.5L268.28125 106.7781249999999L661.546875 500L268.28125 893.30625z" />
    <glyph glyph-name="circle"
      unicode="&#xEA09;"
      horiz-adv-x="1000" d="M500 937.5C741.609375 937.5 937.5 741.625 937.5 500C937.5 258.390625 741.609375 62.5 500 62.5C258.375 62.5 62.5 258.390625 62.5 500C62.5 741.625 258.375 937.5 500 937.5zM500 875C292.890625 875 125 707.109375 125 500C125 292.90625 292.890625 125 500 125C707.09375 125 875 292.90625 875 500C875 707.109375 707.09375 875 500 875z" />
    <glyph glyph-name="clock"
      unicode="&#xEA0A;"
      horiz-adv-x="1000" d="M500 968.75C758.75 968.75 968.75 758.75 968.75 500C968.75 241.25 758.75 31.25 500 31.25C241.25 31.25 31.25 241.25 31.25 500C31.25 758.75 241.25 968.75 500 968.75zM500 906.25C275.78125 906.25 93.75 724.21875 93.75 500C93.75 275.78125 275.78125 93.75 500 93.75C724.21875 93.75 906.25 275.78125 906.25 500C906.25 724.21875 724.21875 906.25 500 906.25zM515.625 750C523.59375 750 531.25 743.4375 531.25 734.375L531.25 488.5937500000001L669.0625 424.375C676.25 421.09375 680.46875 412.1875 676.5625 403.59375L663.28125 375.3125C660 368.125 650.9375 364.0625 642.65625 367.8125L484.84375 441.40625C475.3125 446.71875 468.75 457.03125 468.75 468.75L468.75 734.375C468.75 742.34375 475.3125 750 484.375 750L515.625 750z" />
    <glyph glyph-name="cog"
      unicode="&#xEA0B;"
      horiz-adv-x="1000" d="M562.5 1000C576.1875 1000 588.171875 991.109375 592.265625 978.25L625 837.015625C663.21875 822.8125 698.390625 802.28125 729.21875 776.703125L865.546875 818.390625C878.65625 822.40625 892.71875 817.390625 900.390625 806.28125L964.25 695.875C971.078125 684.0625 969.40625 669.296875 960.40625 659.328125L854.328125 560.265625C857.640625 540.671875 859.375 520.546875 859.375 500C859.375 479.46875 857.640625 459.34375 854.328125 439.75L958.5 342.609375C968.484375 333.3125 971.203125 318.703125 965.5 306.53125L901.75 195.875C894.90625 184.015625 881.203125 178.078125 868.015625 180.96875L729.21875 223.3125C698.390625 197.734375 663.21875 177.203125 625 163L592.9375 24.234375C589.859375 10.890625 578.125 0 562.5 0L437.5 0C423.796875 0 411.8125 8.90625 407.71875 21.765625L375 162.984375C336.78125 177.1875 301.609375 197.71875 270.765625 223.3125L134.4375 181.625C121.328125 177.609375 107.265625 182.625 99.59375 193.734375L35.734375 304.140625C28.90625 315.953125 30.578125 330.71875 39.578125 340.6875L145.65625 439.75C142.34375 459.34375 140.625 479.46875 140.625 500C140.625 520.546875 142.34375 540.671875 145.65625 560.265625L41.484375 657.40625C31.5 666.703125 28.78125 681.3125 34.484375 693.484375L98.234375 804.140625C105.078125 816 118.78125 821.9375 131.96875 819.046875L270.765625 776.703125C301.609375 802.296875 336.78125 822.828125 375 837.03125L407.046875 975.78125C410.125 989.125 421.875 1000 437.5 1000L562.5 1000zM537.640625 937.5L462.34375 937.5L427.84375 788.046875C375.640625 774.984375 327.625 748.0625 286.734375 706.46875L139.921875 751.359375L102.28125 686.140625L214.46875 581.546875C206.90625 553.53125 203.125 526.359375 203.125 500C203.125 473.65625 206.90625 446.484375 214.46875 418.46875L102.28125 313.875L139.921875 248.65625L286.734375 293.5625C323.015625 256.09375 363.890625 230.03125 427.84375 211.96875L462.34375 62.5L537.640625 62.5L572.109375 211.96875C624.3125 225.015625 667.65625 248.65625 713.234375 293.546875L860.046875 248.640625L897.703125 313.859375L785.5 418.4375C793.078125 445.53125 796.875 472.734375 796.875 500C796.875 527.28125 793.078125 554.46875 785.5 581.5625L897.703125 686.15625L860.046875 751.375L713.25 706.46875C676.953125 743.9375 636.625 770.3125 572.109375 788.046875L537.640625 937.5zM500 656.25C586.234375 656.25 656.25 586.25 656.25 500C656.25 413.765625 586.234375 343.75 500 343.75C413.75 343.75 343.75 413.765625 343.75 500C343.75 586.25 413.75 656.25 500 656.25zM500 593.75C448.265625 593.75 406.25 551.734375 406.25 500C406.25 448.28125 448.265625 406.25 500 406.25C551.71875 406.25 593.75 448.28125 593.75 500C593.75 551.734375 551.71875 593.75 500 593.75z" />
    <glyph glyph-name="database"
      unicode="&#xEA0C;"
      horiz-adv-x="1000" d="M500 1000C710.78125 1000 875 928.28125 875 828.125L875 171.875C875 82.1875 731.71875 0 500 0C268.28125 0 125 82.1875 125 171.875L125 828.125C125 928.75 289.21875 1000 500 1000zM500 218.75C289.6875 218.75 193.4375 288.4375 187.5 292.5L187.5 171.875C187.5 126.09375 309.21875 62.5 500 62.5C690.78125 62.5 812.5 126.09375 812.5 171.875L812.5 292.5C806.5625 288.59375 710.3125 218.75 500 218.75zM500 437.5C289.6875 437.5 193.4375 507.1875 187.5 511.25L187.5 390.625C187.5 344.84375 309.21875 281.25 500 281.25C690.78125 281.25 812.5 344.84375 812.5 390.625L812.5 511.25C806.5625 507.34375 710.3125 437.5 500 437.5zM500 656.25C289.6875 656.25 193.4375 725.9375 187.5 730L187.5 609.375C187.5 563.59375 309.21875 500 500 500C690.78125 500 812.5 563.59375 812.5 609.375L812.5 730C806.5625 726.09375 710.3125 656.25 500 656.25zM500 937.5C308.28125 937.5 187.5 875 187.5 828.125C187.5 782.65625 307.96875 718.75 500 718.75C692.03125 718.75 812.5 781.25 812.5 828.125C812.5 875 691.71875 937.5 500 937.5z" />
    <glyph glyph-name="diamond"
      unicode="&#xEA0D;"
      horiz-adv-x="1000" d="M500 968.75L968.75 500L500 31.25L31.25 500L500 968.75zM500 880.359375L119.640625 500L500 119.640625L880.359375 500L500 880.359375z" />
    <glyph glyph-name="external"
      unicode="&#xEA0E;"
      horiz-adv-x="1000" d="M500 750L500 687.5L187.5 687.5L187.5 62.5L812.5 62.5L812.5 375L875 375L875 0L125 0L125 750L500 750zM1000 875L1000 500L937.5 500L937.5 750L946.5625 777.03125L443.90625 274.84375L399.84375 318.90625L902.921875 821.71875L875 812.5L625 812.5L625 875L1000 875z" />
    <glyph glyph-name="file_text"
      unicode="&#xEA0F;"
      horiz-adv-x="1000" d="M875 1000L875 0L125 0L125 1000L875 1000zM812.5 937.5L187.5 937.5L187.5 62.5L812.5 62.5L812.5 937.5zM312.5 593.75L687.5 593.75L687.5 656.25L312.5 656.25zM312.5 750L687.5 750L687.5 812.5L312.5 812.5zM312.5 437.5L500 437.5L500 500L312.5 500z" />
    <glyph glyph-name="funnel"
      unicode="&#xEA10;"
      horiz-adv-x="1000" d="M1000 1000L1000 839.0625L656.25 496.8749999999999L656.25 153.125L343.75 0L343.75 495.3125000000001L0 839.0625L0 1000L1000 1000zM937.5 937.5L62.5 937.5L62.5 865L406.25 521.25L406.25 100.15625L593.75 192.03125L593.75 522.8125L937.5 865L937.5 937.5z" />
    <glyph glyph-name="hand"
      unicode="&#xEA11;"
      horiz-adv-x="1000" d="M453.125 953.125C537.65625 953.125 576.875 890 546.875 796.875C541.09375 779.0625 525.46875 747.8125 500 703.125L906.25 703.125C960.46875 703.125 1000 664.84375 1000 609.375C1000 555.15625 961.09375 515.625 906.25 515.625L750 515.625L691.875 225.46875C680.625 168.4375 630 125 569.375 125L0 125L0 703.125L203.125 703.125L453.125 953.125zM250 661.5625L250 187.5L569.375 187.5C598.125 187.5 622.96875 207.03125 630 234.6875L698.75 578.125L906.25 578.125C926.5625 578.125 937.5 588.90625 937.5 609.375C937.5 628.90625 926.875 640.625 906.25 640.625L388.59375 640.625L446.71875 735.625C465.3125 766.25 478.90625 793.90625 488.28125 818.59375C499.0625 847.03125 497.03125 883.4375 476.09375 887.65625L250 661.5625zM187.5 640.625L62.5 640.625L62.5 187.5L187.5 187.5L187.5 640.625z" />
    <glyph glyph-name="home"
      unicode="&#xEA12;"
      horiz-adv-x="1000" d="M500 962.5L988.75 555.3125L948.75 507.1875L875 568.75L875 62.5L125 62.5L125 568.75L51.25 507.1875L11.25 555.3125L500 962.5zM500 881.25L187.5 620.78125L187.5 125L359.375 125L359.375 453.125L640.625 453.125L640.625 125L812.5 125L812.5 620.78125L500 881.25zM578.125 390.625L421.875 390.625L421.875 125L578.125 125L578.125 390.625z" />
    <glyph glyph-name="lock"
      unicode="&#xEA13;"
      horiz-adv-x="1000" d="M500 968.75C645 968.75 765.625 851.25 765.625 703.125L765.625 531.25L875 531.25L875 0L125 0L125 531.25L703.125 531.25L703.125 703.125C703.125 815.15625 612.03125 906.25 500 906.25C389.53125 906.25 296.875 816.71875 296.875 703.125L234.375 703.125C234.375 849.6875 353.4375 968.75 500 968.75zM812.5 468.75L187.5 468.75L187.5 62.5L812.5 62.5L812.5 468.75z" />
    <glyph glyph-name="map_pin"
      unicode="&#xEA14;"
      horiz-adv-x="1000" d="M500 1000C715.78125 1000 890.625 825.15625 890.625 609.375C890.625 410.9375 765.625 312.5 500 0C234.375 312.5 109.375 410.9375 109.375 609.375C109.375 825.15625 284.21875 1000 500 1000zM500 937.5C318.75 937.5 171.875 790.625 171.875 609.375C171.875 437.5 296.875 328.125 500.625 95C703.125 328.125 828.125 437.5 828.125 609.375C828.125 790.625 681.25 937.5 500 937.5zM500 765.625C586.25 765.625 656.25 695.625 656.25 609.375C656.25 523.125 586.25 453.125 500 453.125C413.75 453.125 343.75 523.125 343.75 609.375C343.75 695.625 413.75 765.625 500 765.625zM500 703.125C448.28125 703.125 406.25 661.09375 406.25 609.375C406.25 557.65625 448.28125 515.625 500 515.625C551.71875 515.625 593.75 557.65625 593.75 609.375C593.75 661.09375 551.71875 703.125 500 703.125z" />
    <glyph glyph-name="minus"
      unicode="&#xEA15;"
      horiz-adv-x="1000" d="M187.5 531.25L812.5 531.25L812.5 468.75L187.5 468.75z" />
    <glyph glyph-name="mute"
      unicode="&#xEA16;"
      horiz-adv-x="1000" d="M500 875L500 125L406.25 125L203.125 312.5L0 312.5L0 687.5L203.125 687.5L406.25 875L500 875zM437.5 812.5L430.6875 812.5L227.546875 625L62.5 625L62.5 375L227.546875 375L430.703125 187.5L437.5 187.5L437.5 812.5zM955.796875 671.875L1000 627.65625L856.875 484.375L1000 341.109375L955.796875 296.875L812.6875 440.171875L812.5 440.234375L669.1875 296.875L625 341.109375L768.109375 484.375L625 627.65625L669.1875 671.875L812.296875 528.609375L812.5 528.546875L812.5 528.671875L812.5 528.625L955.796875 671.875z" />
    <glyph glyph-name="pause"
      unicode="&#xEA17;"
      horiz-adv-x="1000" d="M343.75 812.5L343.75 187.5L281.25 187.5L281.25 812.5L343.75 812.5zM718.75 812.5L718.75 187.5L656.25 187.5L656.25 812.5L718.75 812.5z" />
    <glyph glyph-name="play"
      unicode="&#xEA18;"
      horiz-adv-x="1000" d="M281.25 812.5L767.3611109375 500L281.25 187.5L281.25 812.5zM343.75 698.03125L343.75 301.984375L651.78125 500L343.75 698.03125z" />
    <glyph glyph-name="plus"
      unicode="&#xEA19;"
      horiz-adv-x="1000" d="M531.25 796.875L531.25 531.25L812.5 531.25L812.5 468.75L531.25 468.75L531.25 171.875L468.75 171.875L468.75 468.75L187.5 468.75L187.5 531.25L468.75 531.25L468.75 796.875z" />
    <glyph glyph-name="search"
      unicode="&#xEA1A;"
      horiz-adv-x="1000" d="M406.25 968.75C613.28125 968.75 781.25 800.78125 781.25 593.75C781.25 501.5625 747.8125 417.03125 692.5 351.71875L968.75 75.625L924.375 31.25L648.28125 307.5C582.96875 252.1875 498.4375 218.75 406.25 218.75C199.21875 218.75 31.25 386.71875 31.25 593.75C31.25 800.78125 199.21875 968.75 406.25 968.75zM406.25 906.25C233.75 906.25 93.75 766.25 93.75 593.75C93.75 421.25 233.75 281.25 406.25 281.25C578.75 281.25 718.75 421.25 718.75 593.75C718.75 766.25 578.75 906.25 406.25 906.25z" />
    <glyph glyph-name="sort"
      unicode="&#xEA1B;"
      horiz-adv-x="1000" d="M768.28125 387.96875L812.5 343.75L500 31.25L187.5 343.75L231.71875 387.96875L500 119.6546875L768.28125 387.96875zM187.5 656.25L500 968.75L812.5 656.25L768.28125 612.03125L500 880.3578125L231.71875 612.03125L187.5 656.25z" />
    <glyph glyph-name="sound"
      unicode="&#xEA1C;"
      horiz-adv-x="1000" d="M500 875L500 125L406.25 125L203.125 312.5L0 312.5L0 687.5L203.125 687.5L406.25 875L500 875zM831.46875 831.453125C916.28125 746.625 968.75 629.4375 968.75 500C968.75 370.5625 916.28125 253.375 831.453125 168.546875L787.25 212.75C860.765625 286.265625 906.25 387.828125 906.25 500C906.25 612.1875 860.78125 713.734375 787.265625 787.25L831.46875 831.453125zM437.5 812.5L430.6875 812.5L227.546875 625L62.5 625L62.5 375L227.546875 375L430.703125 187.5L437.5 187.5L437.5 812.5zM698.875 698.859375C749.765625 647.96875 781.25 577.671875 781.25 500C781.25 422.34375 749.765625 352.03125 698.859375 301.140625L654.671875 345.328125C694.25 384.921875 718.75 439.609375 718.75 500C718.75 560.40625 694.25 615.09375 654.671875 654.6875L698.875 698.859375z" />
    <glyph glyph-name="star"
      unicode="&#xEA1D;"
      horiz-adv-x="1000" d="M500 1000L646.9375 702.265625L975.515625 654.515625L737.75 422.75L793.890625 95.5L500 250L206.09375 95.5L262.234375 422.75L24.46875 654.515625L353.046875 702.265625L500 1000zM605.4375 645.140625L500 858.796875L394.546875 645.140625L158.78125 610.875L329.390625 444.578125L289.109375 209.75L500 320.625L710.875 209.75L670.59375 444.578125L841.203125 610.875L605.4375 645.140625z" />
    <glyph glyph-name="times"
      unicode="&#xEA1E;"
      horiz-adv-x="1000" d="M768.296875 812.5L812.5 768.3125L544.375 500L812.5 232.09375L768.296875 187.90625L500 456.015625L500 455.953125L500 456.078125L500 455.953125L500 456.015625L231.6875 187.90625L187.5 232.09375L455.609375 500L187.5 768.3125L231.6875 812.5L500 544.390625L500 544.46875L500 544.328125L500 544.46875L500 544.40625z" />
    <glyph glyph-name="tool"
      unicode="&#xEA1F;"
      horiz-adv-x="1000" d="M842.03125 952.5L616.09375 726.5625L639.53125 639.53125L726.5625 616.09375L952.5 842.03125C1029.21875 715.78125 1012.96875 548.90625 903.90625 439.84375C815.78125 351.71875 690 324.21875 578.125 357.34375L266.71875 45.78125C205.78125 -15.15625 106.71875 -15.15625 45.78125 45.78125C-15.3125 106.71875 -15.3125 205.78125 45.78125 266.71875L357.34375 578.125C324.21875 690 351.71875 815.78125 439.84375 903.90625C548.90625 1012.96875 715.78125 1029.21875 842.03125 952.5zM484.0625 859.6875C405.15625 780.78125 384.84375 663.90625 429.84375 562.5L90 222.5C53.28125 185.9375 53.28125 126.5625 90 90C125.625 54.375 183.75 52.1875 222.5 90L562.5 429.84375C660.15625 385.625 779.375 403.59375 859.6875 484.0625C926.875 551.25 950.625 645.46875 930.625 731.875L745.3125 546.40625L588.59375 588.59375L546.40625 745.3125L731.875 930.625C645.46875 950.625 551.25 926.875 484.0625 859.6875z" />
    <glyph glyph-name="x"
      unicode="&#xEA20;"
      horiz-adv-x="1000" d="M893.28125 937.5L937.5 893.28125L544.21875 500L937.5 106.71875L893.28125 62.5L500 455.796875L106.71875 62.5L62.5 106.71875L455.78125 500L62.5 893.28125L106.71875 937.5L500 544.21875z" />
  </font>
</defs>
</svg>
