<?xml version="1.0" encoding="UTF-8"?>
<svg width="64px" height="64px" viewBox="0 0 64 64" version="1.1" xmlns="http://www.w3.org/2000/svg" xmlns:xlink="http://www.w3.org/1999/xlink">
    <path d="M56,0 L56,64 L19,64 C13,64 8,59.12 8,53 L8,11 C8,5.08 12.89,0 19,0 L56,0 Z M48,50 L19,50 C17.34,50 16,51.4 16,53 C16,54.6 17.29,56 19,56 L48,56 L48,50 Z M48,8 L19,8 C17.4,8 16,9.33 16,11 L16,42.417 C16.817,42.184 17.89,42 19,42 L48,42 L48,8 Z M42,14 L42,22 L22,22 L22,14 L42,14 Z" fill="#000000" fill-rule="nonzero"></path>
</svg>