<?xml version="1.0" encoding="UTF-8"?>
<svg width="64px" height="64px" viewBox="0 0 64 64" version="1.1" xmlns="http://www.w3.org/2000/svg" xmlns:xlink="http://www.w3.org/1999/xlink">
    <path d="M32,2 C48.557,2 62,15.442 62,32 C62,48.557 48.557,62 32,62 C15.442,62 2,48.557 2,32 C2,15.442 15.442,2 32,2 Z M32,10 C19.860,10 10,19.860 10,32 C10,44.139 19.860,54 32,54 C44.139,54 54,44.139 54,32 C54,19.860 44.139,10 32,10 Z M36,16 L36,31.451 L44.567,35.446 L41.186,42.696 L30.145,37.544 C28.870,36.875 28,35.538 28,34 L28,16 L36,16 Z" fill="#000000" fill-rule="nonzero"></path>
</svg>