<?xml version="1.0" encoding="UTF-8"?>
<svg width="64px" height="64px" viewBox="0 0 64 64" version="1.1" xmlns="http://www.w3.org/2000/svg" xmlns:xlink="http://www.w3.org/1999/xlink">
    <path d="M32,8 L32,56 L26,56 L13,44 L0,44 L0,20 L13,20 L26,8 L32,8 Z M58.351,20 L64.001,25.65 L57.662,31.995 L64.001,38.34 L58.351,44 L52,37.645 L45.65,44 L40,38.34 L46.338,31.995 L40,25.65 L45.65,20 L52,26.345 L58.351,20 Z M24,20.733 L16.127,28 L8,28 L8,36 L16.127,36 L24,43.266 L24,20.733 Z" fill="#000000" fill-rule="nonzero"></path>
</svg>