<?xml version="1.0" encoding="UTF-8"?>
<svg width="64px" height="64px" viewBox="0 0 64 64" version="1.1" xmlns="http://www.w3.org/2000/svg" xmlns:xlink="http://www.w3.org/1999/xlink">
    <path d="M32,8 L32,56 L26,56 L13,44 L0,44 L0,20 L13,20 L26,8 L32,8 Z M53.214,10.787 C58.642,16.216 62,23.716 62,32 C62,40.284 58.642,47.784 53.213,53.213 L47.556,47.556 C51.537,43.575 54,38.075 54,32 C54,25.925 51.537,20.425 47.557,16.444 L53.214,10.787 Z M43.313,20.686 C46.209,23.581 48,27.581 48,32 C48,36.417 46.209,40.417 43.314,43.312 L37.656,37.656 C39.104,36.209 40,34.209 40,32 C40,29.790 39.104,27.790 37.656,26.343 L43.313,20.686 Z M24,20.733 L16.127,28 L8,28 L8,36 L16.127,36 L24,43.266 L24,20.733 Z" fill="#000000" fill-rule="nonzero"></path>
</svg>