<?xml version="1.0" encoding="UTF-8"?>
<svg width="64px" height="64px" viewBox="0 0 64 64" version="1.1" xmlns="http://www.w3.org/2000/svg" xmlns:xlink="http://www.w3.org/1999/xlink">
    <!-- Generator: Sketch 63.1 (92452) - https://sketch.com -->
    <title>chair</title>
    <desc>Created with Sketch.</desc>
    <g id="chair" stroke="none" stroke-width="1" fill="none" fill-rule="evenodd">
        <path d="M55.9596574,33 C57.7564886,33 59.3328182,34.1981455 59.813729,35.9294245 L62.5915068,45.9294245 C63.1827693,48.0579695 61.9365556,50.2628091 59.8080106,50.8540716 C59.4593944,50.9509095 59.0992512,51 58.7374352,51 L5.26256482,51 C3.05342582,51 1.26256482,49.209139 1.26256482,47 C1.26256482,46.638184 1.31165535,46.2780407 1.40849318,45.9294245 L4.18627096,35.9294245 C4.66718181,34.1981455 6.24351138,33 8.0403426,33 L55.9596574,33 Z M54.439,39 L9.56,39 L7.893,45 L56.106,45 L54.439,39 Z" id="Rectangle" fill="#000000" fill-rule="nonzero"></path>
        <rect id="Rectangle" fill="#000000" x="7" y="51" width="6" height="13"></rect>
        <rect id="Rectangle-Copy" fill="#000000" x="51" y="51" width="6" height="13"></rect>
        <path d="M29,6 L29,33 L23,33 L23.0004159,6.51197015 C19.5838003,7.71938065 17.1139665,10.9312441 17.0038371,14.7346377 L17,15 L17,33 L11,33 L11,15 C11,6.82059295 17.5467864,0.170269778 25.6861718,0.00321775869 L26,0 L38,0 C46.1794071,0 52.8297302,6.54678637 52.9967822,14.6861718 L53,15 L53,33 L47,33 L47,15 C47,11.0815595 44.4958532,7.74799384 41.000578,6.51232144 L41,33 L35,33 L35,6 L29,6 Z" id="Path" fill="#000000" fill-rule="nonzero"></path>
    </g>
</svg>