<?xml version="1.0" encoding="UTF-8"?>
<svg width="64px" height="64px" viewBox="0 0 64 64" version="1.1" xmlns="http://www.w3.org/2000/svg" xmlns:xlink="http://www.w3.org/1999/xlink">
    <!-- Generator: Sketch 63.1 (92452) - https://sketch.com -->
    <title>clock</title>
    <desc>Created with Sketch.</desc>
    <g id="clock" stroke="none" stroke-width="1" fill="none" fill-rule="evenodd">
        <path d="M32,0 C49.673112,0 64,14.326888 64,32 C64,49.673112 49.673112,64 32,64 C14.326888,64 0,49.673112 0,32 C0,14.326888 14.326888,0 32,0 Z M32,6 C17.6405965,6 6,17.6405965 6,32 C6,46.3594035 17.6405965,58 32,58 C46.3594035,58 58,46.3594035 58,32 C58,17.6405965 46.3594035,6 32,6 Z" id="Oval" fill="#000000" fill-rule="nonzero"></path>
        <path d="M29.8786797,34.1213203 L29.8330381,34.075763 C29.6327617,33.8669363 29.4666019,33.6327414 29.336724,33.381839 C29.1705049,33.0625496 29.0602323,32.7095984 29.0185969,32.335922 C29.0047966,32.213187 28.9984089,32.089562 28.9997124,31.9656233 L29,14 C29,12.3431458 30.3431458,11 32,11 C33.5976809,11 34.9036609,12.24892 34.9949073,13.8237272 L35,14 L35,30.301 L43.5434873,35.4275212 C44.9642281,36.2799657 45.4249233,38.1227465 44.5724788,39.5434873 C43.7516063,40.911608 42.0123973,41.3894808 40.6160379,40.6618089 L40.4565127,40.5724788 L30.4565127,34.5724788 L30.4312211,34.5576313 C30.3967358,34.5364339 30.3627119,34.5145585 30.329168,34.4920238 L30.4565127,34.5724788 C30.3988469,34.5378793 30.3427628,34.5016483 30.2882838,34.4638803 C30.2599556,34.4443524 30.2318778,34.4240835 30.2041706,34.4033467 C30.0916379,34.3195069 29.9867701,34.2291586 29.8894334,34.1329996 L29.8786797,34.1213203 L29.8786797,34.1213203 Z" id="Combined-Shape" fill="#000000"></path>
    </g>
</svg>