<?xml version="1.0" encoding="UTF-8"?>
<svg width="64px" height="64px" viewBox="0 0 64 64" version="1.1" xmlns="http://www.w3.org/2000/svg" xmlns:xlink="http://www.w3.org/1999/xlink">
    <!-- Generator: Sketch 63.1 (92452) - https://sketch.com -->
    <title>clock</title>
    <desc>Created with Sketch.</desc>
    <g id="clock" stroke="none" stroke-width="1" fill="none" fill-rule="evenodd">
        <path d="M32,0 C49.673112,0 64,14.326888 64,32 C64,49.673112 49.673112,64 32,64 C14.326888,64 0,49.673112 0,32 C0,14.326888 14.326888,0 32,0 Z M32,6 C17.6405965,6 6,17.6405965 6,32 C6,46.3594035 17.6405965,58 32,58 C46.3594035,58 58,46.3594035 58,32 C58,17.6405965 46.3594035,6 32,6 Z" id="Oval" fill="#000000" fill-rule="nonzero"></path>
        <path d="M32,11 C33.5976809,11 34.9036609,12.24892 34.9949073,13.8237272 L35,14 L34.9995466,30.301 L43.5434873,35.4275212 C44.9642281,36.2799657 45.4249233,38.1227465 44.5724788,39.5434873 C43.7516063,40.911608 42.0123973,41.3894808 40.6160379,40.6618089 L40.4565127,40.5724788 L30.4565127,34.5724788 L30.4203217,34.5508995 C30.3909294,34.5326593 30.3618756,34.5139252 30.3331719,34.4947089 L30.4565127,34.5724788 C30.3988469,34.5378793 30.3427628,34.5016483 30.2882838,34.4638803 C30.2599556,34.4443524 30.2318778,34.4240835 30.2041706,34.4033467 C30.1342481,34.3512755 30.0674951,34.2968296 30.0036053,34.2400167 C29.9920522,34.2290246 29.980211,34.218294 29.9684565,34.2074707 C29.7951944,34.0491519 29.6440014,33.8726664 29.5157206,33.6830521 C29.3707343,33.4687115 29.2523557,33.2348269 29.1658103,32.9860394 C29.1587146,32.9633267 29.1513771,32.9413731 29.1442941,32.9193412 C29.134467,32.8913207 29.1255867,32.8622197 29.1171405,32.8329346 C29.111137,32.8093685 29.1048157,32.7864433 29.0987663,32.7634472 C29.0746048,32.67435 29.0550563,32.5827903 29.0397846,32.4897906 C29.0375704,32.4740039 29.035047,32.4580106 29.0326523,32.4419956 C29.0110356,32.2977879 29,32.1501827 29,32 L29.0037609,32.1561507 C29.0019999,32.1229422 29.0007889,32.089684 29.0001315,32.0563901 L29,32 L29,32 L29,14 C29,12.3431458 30.3431458,11 32,11 Z" id="Combined-Shape" fill="#000000"></path>
    </g>
</svg>