<?xml version="1.0" encoding="UTF-8"?>
<svg width="64px" height="64px" viewBox="0 0 64 64" version="1.1" xmlns="http://www.w3.org/2000/svg" xmlns:xlink="http://www.w3.org/1999/xlink">
    <!-- Generator: Sketch 63.1 (92452) - https://sketch.com -->
    <title>database</title>
    <desc>Created with Sketch.</desc>
    <g id="database" stroke="none" stroke-width="1" fill="none" fill-rule="evenodd">
        <path d="M32,0 C46.3594035,0 58,4.92486775 58,11 C58,17.0751322 46.3594035,22 32,22 C17.6405965,22 6,17.0751322 6,11 C6,4.98815038 17.3993472,0.102726223 31.5521638,0.00159888069 L32,0 Z M32,6 C25.7726423,6 20.0101162,7.03118358 15.9530636,8.74762891 C14.3591031,9.42199685 13.1602121,10.1511974 12.4346243,10.8183993 L12.247,10.999 L12.2864141,11.0396204 C12.943988,11.6973693 14.0804532,12.4254619 15.6175761,13.107067 L15.9530636,13.2523711 C20.0101162,14.9688164 25.7726423,16 32,16 C38.2273577,16 43.9898838,14.9688164 48.0469364,13.2523711 C49.6408969,12.5780032 50.8397879,11.8488026 51.5653757,11.1816007 L51.752,11 L51.7135859,10.9603796 C51.056012,10.3026307 49.9195468,9.57453811 48.3824239,8.89293303 L48.0469364,8.74762891 C43.9898838,7.03118358 38.2273577,6 32,6 Z" id="Oval" fill="#000000" fill-rule="nonzero"></path>
        <path d="M32,64 C17.6405965,64 6,59.0751322 6,53 L6,11 L12,11 L12,25 L12.247,25 L12.2864141,25.0396204 C12.943988,25.6973693 14.0804532,26.4254619 15.6175761,27.107067 L15.9530636,27.2523711 C20.0101162,28.9688164 25.7726423,30 32,30 C38.2273577,30 43.9898838,28.9688164 48.0469364,27.2523711 C49.6408969,26.5780032 50.8397879,25.8488026 51.5653757,25.1816007 L51.752,25 L52,25 L52,11 L58,11 L58,53 C58,59.0751322 46.3594035,64 32,64 Z M32,36 C23.958129,36 16.7690042,34.4553291 11.9997883,32.0290175 L11.9997883,39 L12.247,39 L12.2864141,39.0396204 C12.943988,39.6973693 14.0804532,40.4254619 15.6175761,41.107067 L15.9530636,41.2523711 C20.0101162,42.9688164 25.7726423,44 32,44 C38.2273577,44 43.9898838,42.9688164 48.0469364,41.2523711 C49.6408969,40.5780032 50.8397879,39.8488026 51.5653757,39.1816007 L51.752,39 L52,39 L52.0012084,32.0285104 C47.2319974,34.4551138 40.0424312,36 32,36 Z M52,53 L52.0012084,46.0285104 C47.2319974,48.4551138 40.0424312,50 32,50 C23.958129,50 16.7690042,48.4553291 11.9997883,46.0290175 L11.9997883,53 L12.247,53 L12.2864141,53.0396204 C12.943988,53.6973693 14.0804532,54.4254619 15.6175761,55.107067 L15.9530636,55.2523711 C20.0101162,56.9688164 25.7726423,58 32,58 C38.2273577,58 43.9898838,56.9688164 48.0469364,55.2523711 C49.6408969,54.5780032 50.8397879,53.8488026 51.5653757,53.1816007 L51.752,53 L52,53 Z" id="Shape" fill="#000000" fill-rule="nonzero"></path>
    </g>
</svg>