<?xml version="1.0" encoding="UTF-8"?>
<svg width="64px" height="64px" viewBox="0 0 64 64" version="1.1" xmlns="http://www.w3.org/2000/svg" xmlns:xlink="http://www.w3.org/1999/xlink">
    <!-- Generator: Sketch 63.1 (92452) - https://sketch.com -->
    <title>gear</title>
    <desc>Created with Sketch.</desc>
    <g id="gear" stroke="none" stroke-width="1" fill="none" fill-rule="evenodd">
        <path d="M38.4364943,0.0796216069 L50.019197,4.87733413 C50.4584976,5.05929841 50.7089145,5.5254382 50.6181096,5.99218278 L49.3480466,12.524616 C50.0976669,13.1928022 50.80846,13.9036192 51.4766198,14.653261 L58.0083294,13.3822582 C58.475092,13.2914184 58.9412681,13.5418353 59.1232417,13.9811585 L63.9200125,25.5615877 C64.1019819,26.0009006 63.9494288,26.5075968 63.5551612,26.7734197 L58.0385902,30.4936274 C58.0669653,30.992011 58.0813463,31.4941402 58.0813463,31.9996282 C58.0813463,32.5054543 58.0669461,33.0079171 58.0385332,33.506629 L63.5551612,37.2265803 C63.9494288,37.4924032 64.1019819,37.9990994 63.9200125,38.4384123 L59.1232417,50.0188415 C58.9412681,50.4581647 58.475092,50.7085816 58.0083294,50.6177418 L51.4757254,49.3469988 C50.8078257,50.0962715 50.0973324,50.8067523 49.3480466,51.4746403 L50.6181096,58.0078172 C50.7089145,58.4745618 50.4584976,58.9407016 50.019197,59.1226659 L38.4364943,63.9203784 C37.9971835,64.1023469 37.4904898,63.9497962 37.2246657,63.5555322 L33.5033986,58.0375607 C33.0059914,58.0658224 32.5048543,58.0801455 32.0003718,58.0801455 C31.4955512,58.0801455 30.9940805,58.0658032 30.4963449,58.0375039 L26.7753343,63.5555322 C26.5095102,63.9497962 26.0028165,64.1023469 25.5635057,63.9203784 L13.980803,59.1226659 C13.5415024,58.9407016 13.2910855,58.4745618 13.3818904,58.0078172 L14.6516936,51.4737458 C13.9027769,50.806118 13.1926199,50.095937 12.5250183,49.3469988 L5.99167056,50.6177418 C5.52490798,50.7085816 5.05873192,50.4581647 4.87675833,50.0188415 L0.0799874896,38.4384123 C-0.101981896,37.9990994 0.0505712352,37.4924032 0.444838806,37.2265803 L5.9622105,33.506629 C5.93379761,33.0079171 5.91939737,32.5054543 5.91939737,31.9996282 C5.91939737,31.4941402 5.93377836,30.992011 5.96215354,30.4936274 L0.444838806,26.7734197 C0.0505712352,26.5075968 -0.101981896,26.0009006 0.0799874896,25.5615877 L4.87675833,13.9811585 C5.05873192,13.5418353 5.52490798,13.2914184 5.99167056,13.3822582 L12.5241239,14.653261 C13.1919855,13.9039537 13.9024424,13.1934365 14.6516936,12.5255105 L13.3818904,5.99218278 C13.2910855,5.5254382 13.5415024,5.05929841 13.980803,4.87733413 L25.5635057,0.0796216069 C26.0028165,-0.102346886 26.5095102,0.0502037891 26.7753343,0.444467775 L30.4953448,5.96180932 C30.9934088,5.93347233 31.4952131,5.91911082 32.0003718,5.91911082 C32.5051925,5.91911082 33.0066632,5.93345311 33.5043988,5.96175244 L37.2246657,0.444467775 C37.4904898,0.0502037891 37.9971835,-0.102346886 38.4364943,0.0796216069 Z M43.948,8.856 L39.915,7.186 L36.5711202,12.1458044 L33.1638119,11.952078 C32.7778284,11.9301325 32.3899307,11.9191108 32.0003718,11.9191108 C31.7404927,11.9191108 31.4813528,11.9240159 31.2230273,11.933797 L30.8361593,11.952122 L27.4285621,12.1459948 L24.084,7.186 L20.05,8.857 L21.192875,14.7323008 L18.6443005,17.0042482 C18.2108582,17.3906437 17.7942291,17.7955374 17.3956786,18.2176635 L17.0032011,18.6454868 L14.730712,21.1951058 L8.856,20.051 L7.187,24.082 L12.1464646,27.4270398 L11.9524525,30.8346815 C11.9304485,31.2211621 11.9193974,31.6095623 11.9193974,31.9996282 C11.9193974,32.2598453 11.9243155,32.5193211 11.9341227,32.7779803 L11.9524965,33.1653472 L12.146655,36.5732778 L7.187,39.917 L8.857,43.948 L14.7315758,42.8053827 L17.003891,45.3545435 C17.3900982,45.7878039 17.7947885,46.2042678 18.216698,46.6026715 L18.6443005,46.9950082 L21.1928118,49.2668991 L20.05,55.142 L24.084,56.813 L27.4297431,51.8534587 L30.8369318,52.0471783 C31.2229153,52.0691238 31.610813,52.0801455 32.0003718,52.0801455 C32.2599045,52.0801455 32.5186999,52.0752535 32.7766831,52.0654985 L33.1630395,52.0472222 L36.5699392,51.8536489 L39.914,56.814 L43.949,55.142 L42.8067,49.2677629 L45.3556693,46.9956981 C45.7891312,46.6093248 46.2057811,46.2044525 46.6043533,45.7823468 L46.9968527,45.3545435 L49.2692243,42.8053194 L55.143,43.948 L56.812,39.916 L51.8541028,36.5730301 L52.0482472,33.1653472 C52.0702805,32.7786117 52.0813463,32.3899538 52.0813463,31.9996282 C52.0813463,31.7395843 52.0764347,31.4802807 52.0666406,31.2217926 L52.0482912,30.8346815 L51.8542932,27.4272875 L56.813,24.083 L55.143,20.052 L49.2700881,21.1951691 L46.9975426,18.6454868 C46.6110125,18.2118195 46.2059655,17.7949777 45.7836688,17.396229 L45.3556693,17.0035582 L42.8066368,14.7314371 L43.948,8.856 Z" id="Path" fill="#000000" fill-rule="nonzero"></path>
        <path d="M32,19 C39.1797017,19 45,24.8202983 45,32 C45,39.1797017 39.1797017,45 32,45 C24.8202983,45 19,39.1797017 19,32 C19,24.8202983 24.8202983,19 32,19 Z M32,25 C28.1340068,25 25,28.1340068 25,32 C25,35.8659932 28.1340068,39 32,39 C35.8659932,39 39,35.8659932 39,32 C39,28.1340068 35.8659932,25 32,25 Z" id="Oval-Copy" fill="#000000" fill-rule="nonzero"></path>
    </g>
</svg>