<?xml version="1.0" encoding="UTF-8"?>
<svg width="64px" height="64px" viewBox="0 0 64 64" version="1.1" xmlns="http://www.w3.org/2000/svg" xmlns:xlink="http://www.w3.org/1999/xlink">
    <!-- Generator: Sketch 63.1 (92452) - https://sketch.com -->
    <title>hand</title>
    <desc>Created with Sketch.</desc>
    <g id="hand" stroke="none" stroke-width="1" fill="none" fill-rule="evenodd">
        <path d="M26,23 C28.209139,23 30,24.790861 30,27 L30,37 C30,39.209139 28.209139,41 26,41 L-8,41 C-10.209139,41 -12,39.209139 -12,37 L-12,27 C-12,24.790861 -10.209139,23 -8,23 L26,23 Z M23.9998112,28.9993799 L-6.00018883,28.9993799 L-6.00018883,34.9993799 L23.9998112,34.9993799 L23.9998112,28.9993799 Z" id="Rectangle" fill="#000000" fill-rule="nonzero" transform="translate(9.000000, 32.000000) rotate(90.000000) translate(-9.000000, -32.000000) "></path>
        <path d="M32.4900425,3.15274199 C36.9829491,3.15274199 40.289955,7.41350795 40.4087245,12.0490928 L40.41203,12.3069862 L40.411843,20.227636 L40.582777,20.221562 C41.4431642,20.1903778 42.191267,20.1894138 42.8316289,20.2194345 L43.0994866,20.2341998 C43.9630456,20.2892837 44.668518,20.4058551 45.2870628,20.6335678 C45.6982276,20.7849351 46.0836103,20.9872894 46.4208192,21.2454487 L46.4793729,21.2933564 L48.1421689,21.2420137 C49.4367453,21.1989474 50.246459,21.2058584 51.0211935,21.3076486 C51.6900204,21.3955238 52.2714428,21.5503657 52.8298485,21.8545841 C53.1173797,22.0112306 53.3836453,22.2024912 53.6199256,22.4254121 L53.6867309,22.492165 L54.2391655,22.5745436 L55.3652774,22.7247361 C56.5499624,22.8820367 57.2502923,22.9945273 57.9106277,23.1574022 C58.4493102,23.2902709 58.904966,23.4461137 59.3343504,23.6777296 C59.7238998,23.8878579 60.0798684,24.1461483 60.3741249,24.4650489 L60.4128061,24.5098207 L60.5702865,24.5726387 C61.4058601,24.9075757 62.0305641,25.1975331 62.70554,25.6022931 C65.4578733,27.2527737 67.152742,29.8905648 67.152742,33.6417143 C67.152742,40.8029946 64.356507,47.7407557 58.8814642,54.3940648 L58.5040162,54.847258 L54.0094443,50.8603093 C58.85234,45.1143791 61.2109794,39.3965749 61.2109794,33.6417143 C61.2109794,32.2146758 60.7426843,31.4858496 59.7070853,30.8648361 C59.2848452,30.6116332 57.144376,29.7536329 56.6512817,29.3933255 C56.5513753,29.3203232 56.454705,29.2433424 56.3620227,29.1620409 L56.2040577,29.0144961 L55.8934091,28.9583059 C55.6116724,28.9106109 55.2690413,28.8600527 54.8374876,28.8014694 L53.3740759,28.6056947 C52.7171636,28.5135022 52.2740469,28.438197 51.8550437,28.3420925 C51.4152901,28.2412286 51.0431583,28.125227 50.6784167,27.948934 C50.3712111,27.8004503 50.0834561,27.6254094 49.8291152,27.4136393 L49.7196141,27.3168613 L49.3699879,27.3135852 C49.198993,27.3137064 49.0077117,27.3162956 48.7937208,27.3212859 L46.821055,27.3842396 C46.2396926,27.3979754 45.8887131,27.3927053 45.4813453,27.3658552 C44.9286251,27.3294249 44.4601666,27.2528308 43.9870588,27.0780193 C43.545192,26.9147513 43.1313725,26.6775373 42.783631,26.361303 L42.738043,26.3181929 C41.7525543,26.2556909 40.1924244,26.3086153 38.0956053,26.4844725 L37.6961734,26.5188882 L34.4702674,23.48232 L34.4702674,12.3069862 C34.4702674,10.6502851 33.4090515,9.24837857 32.4900425,9.24837857 C31.6164196,9.24837857 30.594509,10.5558137 30.5141539,12.1113311 L30.5090923,12.3069862 L30.5090923,36.6895325 L25.2833838,38.6740242 L22.2052248,34.9762552 C20.3509904,32.7353972 19.1035669,31.1953521 18.4506873,30.3403348 C17.3885174,28.9493069 16.0811099,28.5883462 15.4319351,29.0603762 C15.02153,29.3587912 14.8567979,30.908506 15.5968595,32.1193892 L16.1951277,33.0795829 C17.2124037,34.692657 19.0320962,37.5127002 21.6474631,41.5290364 L27.9370982,51.153603 C25.0618034,54.0476604 23.451018,55.2298862 23.1047417,54.7002805 C21.6763246,52.5156148 19.533699,49.2386164 16.6768648,44.8692852 C13.4088502,39.850425 11.3751358,36.6866563 10.5627912,35.3575043 C8.25783799,31.5861574 8.80859619,26.404908 11.99609,24.0872076 C15.4452744,21.5792259 20.0825622,22.790324 22.9545421,26.359829 L23.4628411,27.0125825 C23.674803,27.2823462 23.9300865,27.6023262 24.2284614,27.9722265 L24.5671428,28.3907093 L24.5673298,12.3069862 C24.5673298,7.67771452 27.7977067,3.31426025 32.2419066,3.15711952 L32.4900425,3.15274199 Z" id="Path" fill="#000000" fill-rule="nonzero" transform="translate(38.152742, 29.000000) rotate(90.000000) translate(-38.152742, -29.000000) "></path>
    </g>
</svg>