<?xml version="1.0" encoding="UTF-8"?>
<svg width="64px" height="64px" viewBox="0 0 64 64" version="1.1" xmlns="http://www.w3.org/2000/svg" xmlns:xlink="http://www.w3.org/1999/xlink">
    <!-- Generator: Sketch 63.1 (92452) - https://sketch.com -->
    <title>map-pin</title>
    <desc>Created with Sketch.</desc>
    <g id="map-pin" stroke="none" stroke-width="1" fill="none" fill-rule="evenodd">
        <path d="M32,0 C45.8071187,0 57,11.1928813 57,25 C57,37.6806641 49.5058594,44 32,64 L30.4920402,62.2363967 C14.5023911,43.6151146 7,37.3002441 7,25 C7,11.1928813 18.1928813,0 32,0 Z M32,6 C21.5065898,6 13,14.5065898 13,25 C13,28.0578033 13.5715952,30.5529597 14.8430236,33.1747109 C16.1165763,35.8008428 18.1225966,38.6593554 21.5641837,42.7915724 L22.4286436,43.8200036 C23.3040852,44.8468674 25.5275015,47.3972424 28.0118834,50.2470118 L32.053,54.886 L37.9640264,48.1993884 C39.6479713,46.2866607 41.0787992,44.6508216 41.8224987,43.7754467 L41.939854,43.6368623 C45.7205925,39.1558202 47.8989507,36.0608021 49.2244086,33.2406598 C50.4496531,30.633739 51,28.1172577 51,25 C51,14.5065898 42.4934102,6 32,6 Z" id="Oval" fill="#000000" fill-rule="nonzero"></path>
        <path d="M32,14 C25.9248678,14 21,18.9248678 21,25 C21,31.0751322 25.9248678,36 32,36 C38.0751322,36 43,31.0751322 43,25 C43,18.9248678 38.0751322,14 32,14 Z M32,20 C34.7614237,20 37,22.2385763 37,25 C37,27.7614237 34.7614237,30 32,30 C29.2385763,30 27,27.7614237 27,25 C27,22.2385763 29.2385763,20 32,20 Z" id="Oval" fill="#000000" fill-rule="nonzero"></path>
    </g>
</svg>