<?xml version="1.0" encoding="UTF-8"?>
<svg width="64px" height="64px" viewBox="0 0 64 64" version="1.1" xmlns="http://www.w3.org/2000/svg" xmlns:xlink="http://www.w3.org/1999/xlink">
    <!-- Generator: Sketch 63.1 (92452) - https://sketch.com -->
    <title>search-thin</title>
    <desc>Created with Sketch.</desc>
    <g id="search-thin" stroke="none" stroke-width="1" fill="none" fill-rule="evenodd">
        <path d="M26,4 C38.1502645,4 48,13.8497355 48,26 C48,38.1502645 38.1502645,48 26,48 C13.8497355,48 4,38.1502645 4,26 C4,13.8497355 13.8497355,4 26,4 Z M26,10 C17.163444,10 10,17.163444 10,26 C10,34.836556 17.163444,42 26,42 C34.836556,42 42,34.836556 42,26 C42,17.163444 34.836556,10 26,10 Z" id="Combined-Shape" fill="#000000"></path>
        <polygon id="Path" fill="#000000" points="61 57.0016183 57 61.0016183 37.999 42.003 42 38.0006183"></polygon>
    </g>
</svg>