<?xml version="1.0" encoding="UTF-8"?>
<svg width="64px" height="64px" viewBox="0 0 64 64" version="1.1" xmlns="http://www.w3.org/2000/svg" xmlns:xlink="http://www.w3.org/1999/xlink">
    <!-- Generator: Sketch 63.1 (92452) - https://sketch.com -->
    <title>tools</title>
    <desc>Created with Sketch.</desc>
    <g id="tools" stroke="none" stroke-width="1" fill="none" fill-rule="evenodd">
        <path d="M3.87878788,0.0120979049 L17.8293333,7.54543124 C18.8504254,8.27433032 19.4559205,9.45208329 19.4545455,10.7066434 L19.4545455,10.9781585 C19.453896,11.8042935 18.4301237,13.2467749 18.4007973,14.1611455 L42.007,37.7660979 L45.2724848,36.6775525 C46.6661906,36.2139117 48.2022291,36.5772757 49.2404848,37.6162191 L62.257697,50.6334312 C63.7719057,52.1480973 63.7719057,54.6033712 62.257697,56.1180373 L56.1059394,62.2697949 C54.5912733,63.7840036 52.1359994,63.7840036 50.6213333,62.2697949 L37.6041212,49.2525828 C36.5651778,48.214327 36.2018138,46.6782885 36.6654545,45.2845828 L37.759,42.0040979 L14.1701933,18.4128526 C13.2579527,18.427709 11.8011998,19.4668209 10.9699394,19.4666434 L10.6945455,19.4666434 C9.44135399,19.4667642 8.26531636,18.8614082 7.53721212,17.8414312 L-5.1159077e-13,3.89088578 L3.87878788,0.0120979049 Z M46.9393398,42.6984271 C45.767767,41.5268542 43.868272,41.5268542 42.6966991,42.6984271 C41.5251263,43.87 41.5251263,45.7694949 42.6966991,46.9410678 L42.6966991,46.9410678 L51.8890873,56.133456 C53.0606602,57.3050288 54.9601551,57.3050288 56.131728,56.133456 C57.3033009,54.9618831 57.3033009,53.0623882 56.131728,51.8908153 L56.131728,51.8908153 Z" id="Combined-Shape" fill="#000000" fill-rule="nonzero"></path>
        <path d="M52,-3.55271368e-14 C53.3943252,-3.55271368e-14 54.7331078,0.23780593 55.978002,0.675071869 L46.204445,10.4470857 L47.7573593,16.2426407 L53.5529143,17.795555 L63.3252782,8.02299476 C63.762321,9.26760678 64,10.6060469 64,12 C64,18.627417 58.627417,24 52,24 C50.5296653,24 49.1210939,23.7355601 47.8192508,23.2516455 L24.2516455,46.8192508 C24.7355601,48.1210939 25,49.5296653 25,51 C25,57.627417 19.627417,63 13,63 C6.372583,63 1,57.627417 1,51 C1,44.372583 6.372583,39 13,39 C14.4703347,39 15.8789061,39.2644399 17.1807492,39.7483545 L40.7483545,16.1807492 C40.2644399,14.8789061 40,13.4703347 40,12 C40,5.372583 45.372583,-3.55271368e-14 52,-3.55271368e-14 Z M13,45 C9.6862915,45 7,47.6862915 7,51 C7,54.3137085 9.6862915,57 13,57 C16.3137085,57 19,54.3137085 19,51 C19,47.6862915 16.3137085,45 13,45 Z" id="Combined-Shape" fill="#000000"></path>
    </g>
</svg>