<?xml version="1.0" encoding="UTF-8"?>
<svg width="64px" height="64px" viewBox="0 0 64 64" version="1.1" xmlns="http://www.w3.org/2000/svg" xmlns:xlink="http://www.w3.org/1999/xlink">
    <path d="M56,0 L56,64 L17,64 C12,64 8,60 8,55 L8,9 C8,4.12 12.12,0 17,0 L56,0 Z M50,52 L17,52 C15.35,52 14,53.35 14,55 C14,56.6 15.37,58 17,58 L50,58 L50,52 Z M50,6 L17,6 C15.4,6 14,7.39 14,9 C14,10 14,22.58 14,46.51 C14.94,46.18 16,46 17,46 L50,46 L50,6 Z" fill="#000000"></path>
    <polygon fill="#000000" points="20 19 44 19 44 13 20 13"></polygon>
</svg>