<?xml version="1.0" encoding="UTF-8"?>
<svg width="64px" height="64px" viewBox="0 0 64 64" version="1.1" xmlns="http://www.w3.org/2000/svg" xmlns:xlink="http://www.w3.org/1999/xlink">
    <path d="M41,0 C47.52,0 53,5.45 53,12 L53,32 C54.72,32 56.35,33.26 56.81,34.93 L59.59,44.93 C60.1827693,47 58,49.78 56,50 L56,64 L50,64 50,50 L14,50 L14,64 L8,64 L8,50 C5,49.70 3.80,47 4.43,44.93 C4.5,44.70 5.42,41.37 7.19,34.93 C7.66,33.21 9.22,32 11,32 L11,12 C11,5.47 16.53,0 23,0 L41,0 Z M51.439,38 L12.56,38 L10.89,44 L53.10,44 L51.44,38 Z M23,32 L23,6 C19.76,6 17.12,8.56 17,11.77 L17,12 L17,32 L23,32 Z M35,6 L29,6 L29,32 L35,32 L35,6 Z M41,6 L41,32 L47,32 L47,12 C47,8.76 44.43,6.12 41.22,6 L41,6 Z" fill="#000000"></path>
</svg>