<?xml version="1.0" encoding="UTF-8"?>
<svg width="64px" height="64px" viewBox="0 0 64 64" version="1.1" xmlns="http://www.w3.org/2000/svg" xmlns:xlink="http://www.w3.org/1999/xlink">
    <path d="M32,2 C48.56,2 62,15.44 62,32 C62,48.56 48.56,62 32,62 C15.44,62 2,48.56 2,32 C2,15.44 15.44,2 32,2 Z M32,8 C18.76,8 8,18.76 8,32 C8,45.24 18.76,56 32,56 C45.24,56 56,45.24 56,32 C56,18.76 45.24,8 32,8 Z" fill="#000000" fill-rule="nonzero"></path>
    <path d="M35,16 L35,32 L44.14,36.35 L41.61,41.79 L30.68,36.69 C29.69,36.21 29,35.18 29,34 L29,16 L35,16 Z" fill="#000000"></path>
</svg>