<?xml version="1.0" encoding="UTF-8"?>
<svg width="64px" height="65px" viewBox="0 0 64 65" version="1.1" xmlns="http://www.w3.org/2000/svg" xmlns:xlink="http://www.w3.org/1999/xlink">
    <path d="M37,0 C38.32,0 39.474,0.857 39.864,2.1 L41.570,8.899 C43.600,9.741 45.496,10.844 47.215,12.165 L53.792,10.285 C55.055,9.924 56.398,10.427 57.117,11.511 L62.215,20.330 C62.870,21.465 62.710,22.887 61.838,23.846 L56.791,28.735 C56.930,29.804 57,30.893 57,32 C57,33.106 56.930,34.195 56.791,35.264 L61.702,40.013 C62.645,40.924 62.881,42.335 62.307,43.497 L57.215,52.330 C56.558,53.468 55.242,54.039 53.973,53.760 L47.215,51.834 C45.496,53.155 43.600,54.258 41.570,55.100 L39.913,61.727 C39.593,63 38.453,64 37,64 C36.035,64 32.702,64 27,64 C25.685,64 24.530,63.142 24.140,61.899 L22.435,55.101 C20.404,54.258 18.508,53.155 16.789,51.833 L10.212,53.714 C8.949,54.075 7.606,53.572 6.888,52.488 L1.789,43.669 C1.134,42.534 1.29,41.112 2.166,40.153 L7.214,35.264 C7.074,34.195 7,33.106 7,32 C7,30.89 7.07,29.804 7.214,28.735 L2.302,23.986 C1.36,23.08 1.12,21.66 1.7,20.5 L6.79,11.67 C7.45,10.53 8.76,9.96 10.03,10.24 L16.79,12.17 C18.51,10.84 20.4,9.74 22.44,8.9 L24.09,2.27 C24.41,1 25.6,0 27,0 L37,0 Z M34.66,6 L29.35,6 L27.46,13.55 C24.06,14.38 20.61,16.34 18.3,18.84 C17.64,18.650 15.141,17.936 10.813,16.698 L8.156,21.3 L13.75,26.71 C13.25,28.49 13,30.25 13,32 C13,33.75 13.251,35.510 13.750,37.290 L8.157,42.698 L10.814,47.301 L18.302,45.16 C20.652,47.604 23.448,49.392 27.458,50.452 L29.345,58 L34.66,58 L36.547,50.452 C39.946,49.616 42.890,47.989 45.702,45.16 L53.19,47.301 L55.847,42.698 L50.254,37.291 C50.753,35.516 51.002,33.752 51.002,32 C51.002,30.247 50.753,28.483 50.26,26.71 L55.848,21.300 L53.191,16.697 L45.702,18.840 C43.352,16.395 40.589,14.650 36.547,13.547 C36.257,12.320 35.628,9.8 34.66,6 Z M32,21 C38.07,21 43,25.93 43,32 C43,38.07 38.07,43 32,43 C25.93,43 21,38.07 21,32 C21,25.93 25.93,21 32,21 Z M32,27 C29.24,27 27,29.24 27,32 C27,34.76 29.24,37 32,37 C34.76,37 37,34.76 37,32 C37,29.24 34.76,27 32,27 Z" fill="#000000"></path>
</svg>