<?xml version="1.0" encoding="UTF-8"?>
<svg width="64px" height="65px" viewBox="0 0 64 65" version="1.1" xmlns="http://www.w3.org/2000/svg" xmlns:xlink="http://www.w3.org/1999/xlink">
    <title>cog</title>
    <g id="cog" stroke="none" stroke-width="1" fill="none" fill-rule="evenodd" transform="translate(0.000000, 1.000000)">
        <path d="M40.7175627,-3.55271368e-15 L41.6100601,8.91559075 C43.6126736,9.75090894 45.4837306,10.8393544 47.1831674,12.1408634 L55.3579316,8.45262092 L64.0728943,23.5473791 L56.7965796,28.7786522 C56.9325066,29.8333526 57.0026,30.9085551 57.0026,32 C57.0026,33.0914369 56.9325066,34.1666328 56.7965796,35.2213277 L64.0728943,40.4526209 L55.3579316,55.5473791 L47.1831674,51.8591065 C45.4837306,53.1606207 43.6126736,54.2490721 41.6100601,55.0843955 L40.7175627,64 L23.2876373,64 L22.3951819,55.0843955 C20.3925717,54.2490721 18.5215144,53.1606207 16.8220752,51.8591065 L8.64726842,55.5473791 L-0.0676942643,40.4526209 L7.20875073,35.2223252 C7.07273822,34.1673107 7.0026,33.091781 7.0026,32 C7.0026,30.9082111 7.07273822,29.8326747 7.20875073,28.7776547 L-0.0676942643,23.5473791 L8.64726842,8.45262092 L16.8220752,12.1408634 C18.5215144,10.8393544 20.3925717,9.75090894 22.3951819,8.91559075 L23.2876373,-3.55271368e-15 L40.7175627,-3.55271368e-15 Z M35.287,5.999 L28.717,5.999 L28.0017679,13.4227372 C24.1907223,14.2408608 20.8024247,16.2034592 18.2148102,18.9326144 L17.9198141,19.2508974 L11.1272735,16.1551262 L7.84227348,21.8449131 L13.9135822,26.1752441 C13.3221127,28.0110891 13.0026,29.9685257 13.0026,32 C13.0026,33.8464587 13.266564,35.6317515 13.758782,37.32017 L13.9132593,37.8237536 L7.8431395,42.1545869 L11.1281395,47.8443738 L17.9198141,44.7491026 C20.4452785,47.5366648 23.785962,49.5722053 27.5639295,50.4778064 L28.0017679,50.5772628 L28.717,58 L35.287,58 L36.0022913,50.577514 C39.8133815,49.7596381 43.2017522,47.7972863 45.7895041,45.0683577 L46.0845164,44.7501009 L52.8764605,47.8454131 L56.1614605,42.1556262 L50.0916269,37.8247559 C50.683091,35.9889109 51.0026,34.0314743 51.0026,32 C51.0026,30.1528691 50.7384469,28.3669487 50.2458881,26.6779861 L50.091304,26.1742418 L56.1623265,21.8438738 L52.8773265,16.1540869 L46.0845164,19.2498991 C43.5589095,16.4625622 40.2181493,14.4272673 36.440135,13.5219138 L36.0022913,13.422486 L35.287,5.999 Z M32.0026,21 C38.0748255,21 43.0026,25.927817 43.0026,32 C43.0026,38.072183 38.0748255,43 32.0026,43 C25.9304458,43 21.0026,38.0721542 21.0026,32 C21.0026,25.9278458 25.9304458,21 32.0026,21 Z M32.0026,27 C29.2441542,27 27.0026,29.2415542 27.0026,32 C27.0026,34.7584458 29.2441542,37 32.0026,37 C34.7611054,37 37.0026,34.7584861 37.0026,32 C37.0026,29.2415139 34.7611054,27 32.0026,27 Z" id="Shape" fill="#000000"></path>
    </g>
</svg>