<?xml version="1.0" encoding="UTF-8"?>
<svg width="64px" height="65px" viewBox="0 0 64 65" version="1.1" xmlns="http://www.w3.org/2000/svg" xmlns:xlink="http://www.w3.org/1999/xlink">
    <path d="M40.72,0 L41.61,8.92 C43.61,9.75 45.48,10.84 47.18,12.14 L55.36,8.45 L64.07,23.55 L56.8,28.78 C56.93,29.83 57,30.91 57,32 C57,33.09 56.93,34.17 56.8,35.22 L64.07,40.45 L55.36,55.55 L47.18,51.86 C45.48,53.16 43.61,54.25 41.61,55.08 L40.72,64 L23.29,64 L22.4,55.08 C20.39,54.25 18.52,53.16 16.82,51.86 L8.65,55.55 L-0.07,40.45 L7.21,35.22 C7.07,34.17 7,33.09 7,32 C7,30.91 7.07,29.83 7.21,28.78 L-0.07,23.55 L8.65,8.45 L16.82,12.14 C18.52,10.84 20.39,9.75 22.4,8.92 L23.29,0 L40.72,0 Z M35.29,6 L28.72,6 L28,13.42 C24.19,14.24 20.8,16.2 18.21,18.93 L17.92,19.25 L11.13,16.16 L7.84,21.84 L13.91,26.18 C13.32,28.01 13,30 13,32 C13,33.85 13.27,35.63 13.76,37.32 L13.91,37.82 L7.84,42.15 L11.13,47.84 L17.92,44.75 C20.45,47.54 23.79,49.57 27.56,50.48 L28,50.58 L28.72,58 L35.29,58 L36,50.58 C39.81,49.76 43.2,47.8 45.79,45.07 L46.08,44.75 L52.88,47.85 L56.16,42.16 L50.09,37.82 C50.68,36 51,34.03 51,32 C51,30.15 50.74,28.37 50.25,26.68 L50.09,26.17 L56.16,21.84 L52.88,16.15 L46.08,19.25 C43.56,16.46 40.22,14.423 36.44,13.52 L36,13.42 L35.29,6 Z M32,21 C38.07,21 43,25.93 43,32 C43,38.07 38.07,43 32,43 C25.93,43 21,38.07 21,32 C21,25.93 25.93,21 32,21 Z M32,27 C29.24,27 27,29.24 27,32 C27,34.76 29.24,37 32,37 C34.76,37 37,34.76 37,32 C37,29.24 34.76,27 32,27 Z" fill="#000000"></path>
</svg>