<?xml version="1.0" encoding="UTF-8"?>
<svg width="64px" height="64px" viewBox="0 0 64 64" version="1.1" xmlns="http://www.w3.org/2000/svg" xmlns:xlink="http://www.w3.org/1999/xlink">
    <title>hand</title>
    <g id="hand" stroke="none" stroke-width="1" fill="none" fill-rule="evenodd">
        <path d="M43.4475649,5.26523028 C45.9236932,8.75876878 44.545293,13.2708418 41,16.1852653 L39,17.999 L55,18 C59.5555516,18 64,21.4636514 64,26 C64,30.5363486 59.8715303,34 55,34 L47.2002112,34 C47.3156594,36.7899408 47.0031592,38.4728748 46.17,39.5506349 C46.17,41.5294868 46.6429453,45.7301482 45.0040508,47.3091864 C44.6909158,49.5987642 44.5012792,52.8940607 43.2242664,54.0541585 C41.3226107,59.2428946 37.7327866,61 34,61 C28.5400829,61 23.1718378,59.3067037 18.0005704,55.9958946 L18,56 L0,56 L0,13 L18,13 L18,13.312203 L32.4063971,3.45826244 C36.1104229,1.13593527 41.1680264,2.04891028 43.4475649,5.26523028 Z M35.5936709,8.54169489 L29.9358829,12.391568 L18.0001778,20.5785451 L18.0001778,48.5994988 C23.2952147,52.8856613 28.6574115,55 34,55 C37.4100633,55 37.0358686,52.0556897 38.56,50.178 C39.0834212,47.2861776 38.8624064,45.0142403 40.2061635,43.516141 C40.2800674,42.1537734 40.0903304,39.8567678 40.22,38.5334778 C40.3496696,37.2101877 40.7536109,36.5859828 41.182,36.05 C41.2450241,34.6833333 41.1843574,33.0858543 41,31.257563 L44,28 L55,28 C56.6273434,28 58,26.9313976 58,26 C58,25.1148657 56.6024701,24 55,24 L31,24 L29,18.7286194 L37.1500268,11.6383058 C38.6033915,10.4397508 38.9623346,9.27674374 38.5523975,8.73471672 C38.1424604,8.19268969 36.6439915,7.86713224 35.5936709,8.54169489 Z M12,19 L6,19 L6,50 L12,50 L12,19 Z" id="Shape" fill="#000000" fill-rule="nonzero"></path>
    </g>
</svg>