<?xml version="1.0" encoding="UTF-8"?>
<svg width="64px" height="64px" viewBox="0 0 64 64" version="1.1" xmlns="http://www.w3.org/2000/svg" xmlns:xlink="http://www.w3.org/1999/xlink">
    <path d="M30,2 C37.279,2 39.578,5.702 39.752,9.259 C39.939,13.092 38,15.554 36,19 C37.861,19 44.528,19 56,19 C60.256,19 64,22.335 64,27 C64,31.576 60.369,35 56,35 L47,35 L44.238,49.496 C43.535,53.186 40.368,56 36.379,56 L0,56 L0,19 L13,19 L30,2 Z M32.27,8.214 L18,22.484 L18,50 L36.379,50 C37.286,50 38.138,49.351 38.344,48.374 L42.034,29 L56,29 C57.133,29 58,28.163 58,27 C58,25.889 57.233,25 56,25 L25.420,25 C30.053,17.336 32.719,12.803 33.420,11.401 C33.777,10.686 33.892,9.496 33.638,8.942 C33.493,8.626 33.037,8.383 32.27,8.214 Z M12,25 L6,25 L6,50 L12,50 L12,25 Z" fill="#000000" fill-rule="nonzero"></path>
</svg>