<?xml version="1.0" encoding="UTF-8"?>
<svg width="64px" height="64px" viewBox="0 0 64 64" version="1.1" xmlns="http://www.w3.org/2000/svg" xmlns:xlink="http://www.w3.org/1999/xlink">
    <path d="M32,8 L32,56 L26,56 L13,44 L0,44 L0,20 L13,20 L26,8 L32,8 Z M26,16.164 L15.345,26 L6,26 L6,38 L15.345,38 L26,47.835 L26,16.164 Z M59.76,20 L64,24.242 L56.249,32 L64,39.749 L59.76,44 L52,36.241 L44.242,44 L40,39.749 L47.754,32 L40,24.242 L44.242,20 L52,27.754 L52,27.753 L59.76,20 Z" fill="#000000" fill-rule="nonzero"></path>
</svg>