<?xml version="1.0" encoding="UTF-8"?>
<svg width="64px" height="65px" viewBox="0 0 64 65" version="1.1" xmlns="http://www.w3.org/2000/svg" xmlns:xlink="http://www.w3.org/1999/xlink">
    <title>search</title>
    <g id="search" stroke="none" stroke-width="1" fill="none" fill-rule="evenodd" transform="translate(0.000000, 1.000000)">
        <path d="M26,2 C39.245913,2 50,12.754087 50,26 C50,31.5424878 48.1171347,36.6486976 44.9566997,40.7133337 L61.997417,57.7547763 L57.7547763,61.997417 L40.7133337,44.9566997 C36.6486976,48.1171347 31.5424878,50 26,50 C12.754087,50 2,39.245913 2,26 C2,12.754087 12.754087,2 26,2 Z M26,8 C16.0677955,8 8,16.0677955 8,26 C8,35.9322045 16.0677955,44 26,44 C35.9322045,44 44,35.9322045 44,26 C44,16.0677955 35.9322045,8 26,8 Z" id="Shape" fill="#000000" fill-rule="nonzero"></path>
    </g>
</svg>