<?xml version="1.0" encoding="UTF-8"?>
<svg width="64px" height="65px" viewBox="0 0 64 65" version="1.1" xmlns="http://www.w3.org/2000/svg" xmlns:xlink="http://www.w3.org/1999/xlink">
    <path d="M26,2 C39.25,2 50,12.75 50,26 C50,31.54 48.12,36.65 44.96,40.71 L62,57.75 L57.75,62 L40.71,44.96 C36.65,48.18 31.54,50 26,50 C12.75,50 2,39.25 2,26 C2,12.75 12.75,2 26,2 Z M26,8 C16.07,8 8,16.07 8,26 C8,35.93 16.07,44 26,44 C35.93,44 44,35.93 44,26 C44,16.07 35.93,8 26,8 Z" fill="#000000" fill-rule="nonzero"></path>
</svg>