<?xml version="1.0" encoding="UTF-8"?>
<svg width="64px" height="64px" viewBox="0 0 64 64" version="1.1" xmlns="http://www.w3.org/2000/svg" xmlns:xlink="http://www.w3.org/1999/xlink">
    <path d="M27,4 C39.69,4 50,14.31 50,27 C50,32.27 48.23,37.12 45.24,41 L60,55.74 L55.74,60 L41,45.24 C37.12,48.23 32.27,50 27,50 C14.31,50 4,39.69 4,27 C4,14.31 14.31,4 27,4 Z M27,10 C17.62,10 10,17.62 10,27 C10,36.38 17.62,44 27,44 C36.38,44 44,36.38 44,27 C44,17.62 36.38,10 27,10 Z" fill="#000000" fill-rule="nonzero"></path>
</svg>