<?xml version="1.0" encoding="UTF-8"?>
<svg width="64px" height="64px" viewBox="0 0 64 64" version="1.1" xmlns="http://www.w3.org/2000/svg" xmlns:xlink="http://www.w3.org/1999/xlink">
    <path d="M44.2,25.45 L60.41,9.25 C65.89,17.22 65.14,28.57 57.85,35.85 C52.21,41.49 44.16,43.25 37,41.13 L17.07,61.07 C13.17,64.97 6.83,64.97 2.93,61.07 C-0.98,57.17 -0.98,50.83 2.93,46.93 L22.87,27 C20.75,19.84 22.51,11.79 28.15,6.15 C35.38,-1.08 46.59,-1.94 54.75,3.59 L38.55,19.8 L39.75,24.25 L44.2,25.45 Z M32.39,10.39 C27.6,15.18 26.73,22.41 29.78,28.09 L29.95,28.4 L7.17,51.17 C5.61,52.73 5.61,55.27 7.17,56.83 C8.68,58.34 11.1,58.39 12.67,56.98 L12.83,56.83 L35.6,34.05 C41.32,37.3 48.73,36.48 53.61,31.61 C56.75,28.47 58.2,24.28 57.98,20.17 L46,32.15 L34.85,29.15 L31.85,18 L43.83,6.02 C39.72,5.8 35.53,7.25 32.39,10.39 Z" fill="#000000"></path>
</svg>