<?xml version="1.0" encoding="UTF-8"?>
<svg width="64px" height="64px" viewBox="0 0 64 64" version="1.1" xmlns="http://www.w3.org/2000/svg" xmlns:xlink="http://www.w3.org/1999/xlink">
    <title>tool</title>
    <g id="tool" stroke="none" stroke-width="1" fill="none" fill-rule="evenodd">
        <path d="M54.7539822,3.58871587 L40.547,17.795 L41.747,22.252 L46.204,23.452 L60.41,9.246 L60.5024771,9.38201791 C65.9255223,17.5386189 65.0420857,28.6622491 57.8521674,35.8521674 C52.2141871,41.4901476 44.1573971,43.2503196 37.0091166,41.1326834 L17.0710678,61.0710678 C13.166525,64.97175 6.829625,64.97175 2.927025,61.06905 C-0.975675,57.16645 -0.975675,50.82955 2.927025,46.92695 L22.8673166,26.9908834 C20.7496804,19.8426029 22.5098524,11.7858129 28.1478326,6.14783261 C35.3777931,-1.08212786 46.5854026,-1.93516677 54.7539822,3.58871587 Z M32.391285,10.39136 C27.6024535,15.1801914 26.6505085,22.5135014 29.945079,28.3989892 L7.17075,51.17075 C5.60975,52.73185 5.60975,55.26655 7.17075,56.82765 C8.67981333,58.3366167 11.1450828,58.4499985 12.8284271,56.8284271 L35.6010108,34.054921 C41.3240808,37.3000181 48.7327389,36.4846161 53.60864,31.608715 C56.7481644,28.4691907 58.2042786,24.2796774 57.9769827,20.1661969 L47.9948844,30.1477563 L36.8521978,27.1478022 L33.8522437,16.0051156 L43.8338031,6.0230173 C39.7203226,5.79572143 35.5308093,7.25183565 32.391285,10.39136 Z" id="Shape" fill="#000000"></path>
    </g>
</svg>